<svg aria-roledescription="er" role="graphics-document document" viewBox="0 0 680.5828247070312 540" style="max-width: 680.583px; background-color: white;" xmlns:xlink="http://www.w3.org/1999/xlink" xmlns="http://www.w3.org/2000/svg" width="100%" id="mermaid-1772998868858"><style>#mermaid-1772998868858{font-family:"trebuchet ms",verdana,arial,sans-serif;font-size:16px;fill:#333;}#mermaid-1772998868858 .error-icon{fill:#552222;}#mermaid-1772998868858 .error-text{fill:#552222;stroke:#552222;}#mermaid-1772998868858 .edge-thickness-normal{stroke-width:2px;}#mermaid-1772998868858 .edge-thickness-thick{stroke-width:3.5px;}#mermaid-1772998868858 .edge-pattern-solid{stroke-dasharray:0;}#mermaid-1772998868858 .edge-pattern-dashed{stroke-dasharray:3;}#mermaid-1772998868858 .edge-pattern-dotted{stroke-dasharray:2;}#mermaid-1772998868858 .marker{fill:#333333;stroke:#333333;}#mermaid-1772998868858 .marker.cross{stroke:#333333;}#mermaid-1772998868858 svg{font-family:"trebuchet ms",verdana,arial,sans-serif;font-size:16px;}#mermaid-1772998868858 .entityBox{fill:#ECECFF;stroke:#9370DB;}#mermaid-1772998868858 .attributeBoxOdd{fill:#ffffff;stroke:#9370DB;}#mermaid-1772998868858 .attributeBoxEven{fill:#f2f2f2;stroke:#9370DB;}#mermaid-1772998868858 .relationshipLabelBox{fill:hsl(80, 100%, 96.2745098039%);opacity:0.7;background-color:hsl(80, 100%, 96.2745098039%);}#mermaid-1772998868858 .relationshipLabelBox rect{opacity:0.5;}#mermaid-1772998868858 .relationshipLine{stroke:#333333;}#mermaid-1772998868858 .entityTitleText{text-anchor:middle;font-size:18px;fill:#333;}#mermaid-1772998868858 :root{--mermaid-font-family:"trebuchet ms",verdana,arial,sans-serif;}</style><g/><defs><marker orient="auto" markerHeight="18" markerWidth="18" refY="9" refX="0" id="ONLY_ONE_START"><path d="M9,0 L9,18 M15,0 L15,18" fill="none" stroke="gray"/></marker></defs><defs><marker orient="auto" markerHeight="18" markerWidth="18" refY="9" refX="18" id="ONLY_ONE_END"><path d="M3,0 L3,18 M9,0 L9,18" fill="none" stroke="gray"/></marker></defs><defs><marker orient="auto" markerHeight="18" markerWidth="30" refY="9" refX="0" id="ZERO_OR_ONE_START"><circle r="6" cy="9" cx="21" fill="white" stroke="gray"/><path d="M9,0 L9,18" fill="none" stroke="gray"/></marker></defs><defs><marker orient="auto" markerHeight="18" markerWidth="30" refY="9" refX="30" id="ZERO_OR_ONE_END"><circle r="6" cy="9" cx="9" fill="white" stroke="gray"/><path d="M21,0 L21,18" fill="none" stroke="gray"/></marker></defs><defs><marker orient="auto" markerHeight="36" markerWidth="45" refY="18" refX="18" id="ONE_OR_MORE_START"><path d="M0,18 Q 18,0 36,18 Q 18,36 0,18 M42,9 L42,27" fill="none" stroke="gray"/></marker></defs><defs><marker orient="auto" markerHeight="36" markerWidth="45" refY="18" refX="27" id="ONE_OR_MORE_END"><path d="M3,9 L3,27 M9,18 Q27,0 45,18 Q27,36 9,18" fill="none" stroke="gray"/></marker></defs><defs><marker orient="auto" markerHeight="36" markerWidth="57" refY="18" refX="18" id="ZERO_OR_MORE_START"><circle r="6" cy="18" cx="48" fill="white" stroke="gray"/><path d="M0,18 Q18,0 36,18 Q18,36 0,18" fill="none" stroke="gray"/></marker></defs><defs><marker orient="auto" markerHeight="36" markerWidth="57" refY="18" refX="39" id="ZERO_OR_MORE_END"><circle r="6" cy="18" cx="9" fill="white" stroke="gray"/><path d="M21,18 Q39,0 57,18 Q39,36 21,18" fill="none" stroke="gray"/></marker></defs><path style="stroke: gray; fill: none;" marker-start="url(#ONLY_ONE_START)" marker-end="url(#ZERO_OR_MORE_END)" d="M272.16699981689453,137.79092488217063L243.3906987508138,152.49243740180887C214.61439768473306,167.19394992144709,157.06179555257162,196.59697496072354,128.28549448649088,219.6318208136951C99.50919342041016,242.66666666666666,99.50919342041016,259.3333333333333,99.50919342041016,267.6666666666667L99.50919342041016,276" class="er relationshipLine"/><path style="stroke: gray; fill: none;" marker-start="url(#ONLY_ONE_START)" marker-end="url(#ZERO_OR_MORE_END)" d="M350.0525665283203,176L350.0525665283203,184.33333333333334C350.0525665283203,192.66666666666666,350.0525665283203,209.33333333333334,350.0525665283203,237C350.0525665283203,264.6666666666667,350.0525665283203,303.3333333333333,350.0525665283203,322.6666666666667L350.0525665283203,342" class="er relationshipLine"/><path style="stroke: gray; fill: none;" marker-start="url(#ONLY_ONE_START)" marker-end="url(#ZERO_OR_MORE_END)" d="M427.9381332397461,139.4040217228191L455.0875765482585,153.83668476901593C482.2370198567708,168.26934781521274,536.5359064737955,197.13467390760638,563.685349782308,227.23400362046985C590.8347930908203,257.3333333333333,590.8347930908203,288.6666666666667,590.8347930908203,304.3333333333333L590.8347930908203,320" class="er relationshipLine"/><g transform="translate(272.16699981689453,20 )" id="entity-USER-6e7e2962-0c6f-577d-a7fd-2ce3a0cfd2c8"><rect height="156" width="155.77113342285156" y="0" x="0" class="er entityBox"/><text style="dominant-baseline: middle; text-anchor: middle; font-size: 12px;" transform="translate(77.88556671142578,12)" y="0" x="0" id="text-entity-USER-6e7e2962-0c6f-577d-a7fd-2ce3a0cfd2c8" class="er entityLabel">USER</text><rect height="22" width="54.663330078125" y="24" x="0" class="er attributeBoxOdd"/><text style="dominant-baseline: middle; font-size: 10.2px;" transform="translate(5,35)" y="0" x="0" id="text-entity-USER-6e7e2962-0c6f-577d-a7fd-2ce3a0cfd2c8-attr-1-type" class="er entityLabel">LONG</text><rect height="22" width="78.42012023925781" y="24" x="54.663330078125" class="er attributeBoxOdd"/><text style="dominant-baseline: middle; font-size: 10.2px;" transform="translate(59.663330078125,35)" y="0" x="0" id="text-entity-USER-6e7e2962-0c6f-577d-a7fd-2ce3a0cfd2c8-attr-1-name" class="er entityLabel">id</text><rect height="22" width="22.68768310546875" y="24" x="133.0834503173828" class="er attributeBoxOdd"/><text style="dominant-baseline: middle; font-size: 10.2px;" transform="translate(138.0834503173828,35)" y="0" x="0" id="text-entity-USER-6e7e2962-0c6f-577d-a7fd-2ce3a0cfd2c8-attr-1-key" class="er entityLabel">PK</text><rect height="22" width="54.663330078125" y="46" x="0" class="er attributeBoxEven"/><text style="dominant-baseline: middle; font-size: 10.2px;" transform="translate(5,57)" y="0" x="0" id="text-entity-USER-6e7e2962-0c6f-577d-a7fd-2ce3a0cfd2c8-attr-2-type" class="er entityLabel">STRING</text><rect height="22" width="78.42012023925781" y="46" x="54.663330078125" class="er attributeBoxEven"/><text style="dominant-baseline: middle; font-size: 10.2px;" transform="translate(59.663330078125,57)" y="0" x="0" id="text-entity-USER-6e7e2962-0c6f-577d-a7fd-2ce3a0cfd2c8-attr-2-name" class="er entityLabel">username</text><rect height="22" width="22.68768310546875" y="46" x="133.0834503173828" class="er attributeBoxEven"/><text style="dominant-baseline: middle; font-size: 10.2px;" transform="translate(138.0834503173828,57)" y="0" x="0" id="text-entity-USER-6e7e2962-0c6f-577d-a7fd-2ce3a0cfd2c8-attr-2-key" class="er entityLabel"/><rect height="22" width="54.663330078125" y="68" x="0" class="er attributeBoxOdd"/><text style="dominant-baseline: middle; font-size: 10.2px;" transform="translate(5,79)" y="0" x="0" id="text-entity-USER-6e7e2962-0c6f-577d-a7fd-2ce3a0cfd2c8-attr-3-type" class="er entityLabel">STRING</text><rect height="22" width="78.42012023925781" y="68" x="54.663330078125" class="er attributeBoxOdd"/><text style="dominant-baseline: middle; font-size: 10.2px;" transform="translate(59.663330078125,79)" y="0" x="0" id="text-entity-USER-6e7e2962-0c6f-577d-a7fd-2ce3a0cfd2c8-attr-3-name" class="er entityLabel">email</text><rect height="22" width="22.68768310546875" y="68" x="133.0834503173828" class="er attributeBoxOdd"/><text style="dominant-baseline: middle; font-size: 10.2px;" transform="translate(138.0834503173828,79)" y="0" x="0" id="text-entity-USER-6e7e2962-0c6f-577d-a7fd-2ce3a0cfd2c8-attr-3-key" class="er entityLabel"/><rect height="22" width="54.663330078125" y="90" x="0" class="er attributeBoxEven"/><text style="dominant-baseline: middle; font-size: 10.2px;" transform="translate(5,101)" y="0" x="0" id="text-entity-USER-6e7e2962-0c6f-577d-a7fd-2ce3a0cfd2c8-attr-4-type" class="er entityLabel">STRING</text><rect height="22" width="78.42012023925781" y="90" x="54.663330078125" class="er attributeBoxEven"/><text style="dominant-baseline: middle; font-size: 10.2px;" transform="translate(59.663330078125,101)" y="0" x="0" id="text-entity-USER-6e7e2962-0c6f-577d-a7fd-2ce3a0cfd2c8-attr-4-name" class="er entityLabel">password_hash</text><rect height="22" width="22.68768310546875" y="90" x="133.0834503173828" class="er attributeBoxEven"/><text style="dominant-baseline: middle; font-size: 10.2px;" transform="translate(138.0834503173828,101)" y="0" x="0" id="text-entity-USER-6e7e2962-0c6f-577d-a7fd-2ce3a0cfd2c8-attr-4-key" class="er entityLabel"/><rect height="22" width="54.663330078125" y="112" x="0" class="er attributeBoxOdd"/><text style="dominant-baseline: middle; font-size: 10.2px;" transform="translate(5,123)" y="0" x="0" id="text-entity-USER-6e7e2962-0c6f-577d-a7fd-2ce3a0cfd2c8-attr-5-type" class="er entityLabel">STRING</text><rect height="22" width="78.42012023925781" y="112" x="54.663330078125" class="er attributeBoxOdd"/><text style="dominant-baseline: middle; font-size: 10.2px;" transform="translate(59.663330078125,123)" y="0" x="0" id="text-entity-USER-6e7e2962-0c6f-577d-a7fd-2ce3a0cfd2c8-attr-5-name" class="er entityLabel">roles</text><rect height="22" width="22.68768310546875" y="112" x="133.0834503173828" class="er attributeBoxOdd"/><text style="dominant-baseline: middle; font-size: 10.2px;" transform="translate(138.0834503173828,123)" y="0" x="0" id="text-entity-USER-6e7e2962-0c6f-577d-a7fd-2ce3a0cfd2c8-attr-5-key" class="er entityLabel"/><rect height="22" width="54.663330078125" y="134" x="0" class="er attributeBoxEven"/><text style="dominant-baseline: middle; font-size: 10.2px;" transform="translate(5,145)" y="0" x="0" id="text-entity-USER-6e7e2962-0c6f-577d-a7fd-2ce3a0cfd2c8-attr-6-type" class="er entityLabel">DATETIME</text><rect height="22" width="78.42012023925781" y="134" x="54.663330078125" class="er attributeBoxEven"/><text style="dominant-baseline: middle; font-size: 10.2px;" transform="translate(59.663330078125,145)" y="0" x="0" id="text-entity-USER-6e7e2962-0c6f-577d-a7fd-2ce3a0cfd2c8-attr-6-name" class="er entityLabel">created_at</text><rect height="22" width="22.68768310546875" y="134" x="133.0834503173828" class="er attributeBoxEven"/><text style="dominant-baseline: middle; font-size: 10.2px;" transform="translate(138.0834503173828,145)" y="0" x="0" id="text-entity-USER-6e7e2962-0c6f-577d-a7fd-2ce3a0cfd2c8-attr-6-key" class="er entityLabel"/></g><g transform="translate(20,276 )" id="entity-PASSWORDENTRY-0224fa9a-a44b-5e94-b6df-4b783fba8c87"><rect height="244" width="159.0183868408203" y="0" x="0" class="er entityBox"/><text style="dominant-baseline: middle; text-anchor: middle; font-size: 12px;" transform="translate(79.50919342041016,12)" y="0" x="0" id="text-entity-PASSWORDENTRY-0224fa9a-a44b-5e94-b6df-4b783fba8c87" class="er entityLabel">PASSWORD_ENTRY</text><rect height="22" width="54.663330078125" y="24" x="0" class="er attributeBoxOdd"/><text style="dominant-baseline: middle; font-size: 10.2px;" transform="translate(5,35)" y="0" x="0" id="text-entity-PASSWORDENTRY-0224fa9a-a44b-5e94-b6df-4b783fba8c87-attr-1-type" class="er entityLabel">LONG</text><rect height="22" width="81.66737365722656" y="24" x="54.663330078125" class="er attributeBoxOdd"/><text style="dominant-baseline: middle; font-size: 10.2px;" transform="translate(59.663330078125,35)" y="0" x="0" id="text-entity-PASSWORDENTRY-0224fa9a-a44b-5e94-b6df-4b783fba8c87-attr-1-name" class="er entityLabel">id</text><rect height="22" width="22.68768310546875" y="24" x="136.33070373535156" class="er attributeBoxOdd"/><text style="dominant-baseline: middle; font-size: 10.2px;" transform="translate(141.33070373535156,35)" y="0" x="0" id="text-entity-PASSWORDENTRY-0224fa9a-a44b-5e94-b6df-4b783fba8c87-attr-1-key" class="er entityLabel">PK</text><rect height="22" width="54.663330078125" y="46" x="0" class="er attributeBoxEven"/><text style="dominant-baseline: middle; font-size: 10.2px;" transform="translate(5,57)" y="0" x="0" id="text-entity-PASSWORDENTRY-0224fa9a-a44b-5e94-b6df-4b783fba8c87-attr-2-type" class="er entityLabel">STRING</text><rect height="22" width="81.66737365722656" y="46" x="54.663330078125" class="er attributeBoxEven"/><text style="dominant-baseline: middle; font-size: 10.2px;" transform="translate(59.663330078125,57)" y="0" x="0" id="text-entity-PASSWORDENTRY-0224fa9a-a44b-5e94-b6df-4b783fba8c87-attr-2-name" class="er entityLabel">title</text><rect height="22" width="22.68768310546875" y="46" x="136.33070373535156" class="er attributeBoxEven"/><text style="dominant-baseline: middle; font-size: 10.2px;" transform="translate(141.33070373535156,57)" y="0" x="0" id="text-entity-PASSWORDENTRY-0224fa9a-a44b-5e94-b6df-4b783fba8c87-attr-2-key" class="er entityLabel"/><rect height="22" width="54.663330078125" y="68" x="0" class="er attributeBoxOdd"/><text style="dominant-baseline: middle; font-size: 10.2px;" transform="translate(5,79)" y="0" x="0" id="text-entity-PASSWORDENTRY-0224fa9a-a44b-5e94-b6df-4b783fba8c87-attr-3-type" class="er entityLabel">STRING</text><rect height="22" width="81.66737365722656" y="68" x="54.663330078125" class="er attributeBoxOdd"/><text style="dominant-baseline: middle; font-size: 10.2px;" transform="translate(59.663330078125,79)" y="0" x="0" id="text-entity-PASSWORDENTRY-0224fa9a-a44b-5e94-b6df-4b783fba8c87-attr-3-name" class="er entityLabel">username</text><rect height="22" width="22.68768310546875" y="68" x="136.33070373535156" class="er attributeBoxOdd"/><text style="dominant-baseline: middle; font-size: 10.2px;" transform="translate(141.33070373535156,79)" y="0" x="0" id="text-entity-PASSWORDENTRY-0224fa9a-a44b-5e94-b6df-4b783fba8c87-attr-3-key" class="er entityLabel"/><rect height="22" width="54.663330078125" y="90" x="0" class="er attributeBoxEven"/><text style="dominant-baseline: middle; font-size: 10.2px;" transform="translate(5,101)" y="0" x="0" id="text-entity-PASSWORDENTRY-0224fa9a-a44b-5e94-b6df-4b783fba8c87-attr-4-type" class="er entityLabel">STRING</text><rect height="22" width="81.66737365722656" y="90" x="54.663330078125" class="er attributeBoxEven"/><text style="dominant-baseline: middle; font-size: 10.2px;" transform="translate(59.663330078125,101)" y="0" x="0" id="text-entity-PASSWORDENTRY-0224fa9a-a44b-5e94-b6df-4b783fba8c87-attr-4-name" class="er entityLabel">encrypted_blob</text><rect height="22" width="22.68768310546875" y="90" x="136.33070373535156" class="er attributeBoxEven"/><text style="dominant-baseline: middle; font-size: 10.2px;" transform="translate(141.33070373535156,101)" y="0" x="0" id="text-entity-PASSWORDENTRY-0224fa9a-a44b-5e94-b6df-4b783fba8c87-attr-4-key" class="er entityLabel"/><rect height="22" width="54.663330078125" y="112" x="0" class="er attributeBoxOdd"/><text style="dominant-baseline: middle; font-size: 10.2px;" transform="translate(5,123)" y="0" x="0" id="text-entity-PASSWORDENTRY-0224fa9a-a44b-5e94-b6df-4b783fba8c87-attr-5-type" class="er entityLabel">STRING</text><rect height="22" width="81.66737365722656" y="112" x="54.663330078125" class="er attributeBoxOdd"/><text style="dominant-baseline: middle; font-size: 10.2px;" transform="translate(59.663330078125,123)" y="0" x="0" id="text-entity-PASSWORDENTRY-0224fa9a-a44b-5e94-b6df-4b783fba8c87-attr-5-name" class="er entityLabel">url</text><rect height="22" width="22.68768310546875" y="112" x="136.33070373535156" class="er attributeBoxOdd"/><text style="dominant-baseline: middle; font-size: 10.2px;" transform="translate(141.33070373535156,123)" y="0" x="0" id="text-entity-PASSWORDENTRY-0224fa9a-a44b-5e94-b6df-4b783fba8c87-attr-5-key" class="er entityLabel"/><rect height="22" width="54.663330078125" y="134" x="0" class="er attributeBoxEven"/><text style="dominant-baseline: middle; font-size: 10.2px;" transform="translate(5,145)" y="0" x="0" id="text-entity-PASSWORDENTRY-0224fa9a-a44b-5e94-b6df-4b783fba8c87-attr-6-type" class="er entityLabel">TEXT</text><rect height="22" width="81.66737365722656" y="134" x="54.663330078125" class="er attributeBoxEven"/><text style="dominant-baseline: middle; font-size: 10.2px;" transform="translate(59.663330078125,145)" y="0" x="0" id="text-entity-PASSWORDENTRY-0224fa9a-a44b-5e94-b6df-4b783fba8c87-attr-6-name" class="er entityLabel">notes</text><rect height="22" width="22.68768310546875" y="134" x="136.33070373535156" class="er attributeBoxEven"/><text style="dominant-baseline: middle; font-size: 10.2px;" transform="translate(141.33070373535156,145)" y="0" x="0" id="text-entity-PASSWORDENTRY-0224fa9a-a44b-5e94-b6df-4b783fba8c87-attr-6-key" class="er entityLabel"/><rect height="22" width="54.663330078125" y="156" x="0" class="er attributeBoxOdd"/><text style="dominant-baseline: middle; font-size: 10.2px;" transform="translate(5,167)" y="0" x="0" id="text-entity-PASSWORDENTRY-0224fa9a-a44b-5e94-b6df-4b783fba8c87-attr-7-type" class="er entityLabel">STRING</text><rect height="22" width="81.66737365722656" y="156" x="54.663330078125" class="er attributeBoxOdd"/><text style="dominant-baseline: middle; font-size: 10.2px;" transform="translate(59.663330078125,167)" y="0" x="0" id="text-entity-PASSWORDENTRY-0224fa9a-a44b-5e94-b6df-4b783fba8c87-attr-7-name" class="er entityLabel">category</text><rect height="22" width="22.68768310546875" y="156" x="136.33070373535156" class="er attributeBoxOdd"/><text style="dominant-baseline: middle; font-size: 10.2px;" transform="translate(141.33070373535156,167)" y="0" x="0" id="text-entity-PASSWORDENTRY-0224fa9a-a44b-5e94-b6df-4b783fba8c87-attr-7-key" class="er entityLabel"/><rect height="22" width="54.663330078125" y="178" x="0" class="er attributeBoxEven"/><text style="dominant-baseline: middle; font-size: 10.2px;" transform="translate(5,189)" y="0" x="0" id="text-entity-PASSWORDENTRY-0224fa9a-a44b-5e94-b6df-4b783fba8c87-attr-8-type" class="er entityLabel">DATETIME</text><rect height="22" width="81.66737365722656" y="178" x="54.663330078125" class="er attributeBoxEven"/><text style="dominant-baseline: middle; font-size: 10.2px;" transform="translate(59.663330078125,189)" y="0" x="0" id="text-entity-PASSWORDENTRY-0224fa9a-a44b-5e94-b6df-4b783fba8c87-attr-8-name" class="er entityLabel">created_at</text><rect height="22" width="22.68768310546875" y="178" x="136.33070373535156" class="er attributeBoxEven"/><text style="dominant-baseline: middle; font-size: 10.2px;" transform="translate(141.33070373535156,189)" y="0" x="0" id="text-entity-PASSWORDENTRY-0224fa9a-a44b-5e94-b6df-4b783fba8c87-attr-8-key" class="er entityLabel"/><rect height="22" width="54.663330078125" y="200" x="0" class="er attributeBoxOdd"/><text style="dominant-baseline: middle; font-size: 10.2px;" transform="translate(5,211)" y="0" x="0" id="text-entity-PASSWORDENTRY-0224fa9a-a44b-5e94-b6df-4b783fba8c87-attr-9-type" class="er entityLabel">DATETIME</text><rect height="22" width="81.66737365722656" y="200" x="54.663330078125" class="er attributeBoxOdd"/><text style="dominant-baseline: middle; font-size: 10.2px;" transform="translate(59.663330078125,211)" y="0" x="0" id="text-entity-PASSWORDENTRY-0224fa9a-a44b-5e94-b6df-4b783fba8c87-attr-9-name" class="er entityLabel">updated_at</text><rect height="22" width="22.68768310546875" y="200" x="136.33070373535156" class="er attributeBoxOdd"/><text style="dominant-baseline: middle; font-size: 10.2px;" transform="translate(141.33070373535156,211)" y="0" x="0" id="text-entity-PASSWORDENTRY-0224fa9a-a44b-5e94-b6df-4b783fba8c87-attr-9-key" class="er entityLabel"/><rect height="22" width="54.663330078125" y="222" x="0" class="er attributeBoxEven"/><text style="dominant-baseline: middle; font-size: 10.2px;" transform="translate(5,233)" y="0" x="0" id="text-entity-PASSWORDENTRY-0224fa9a-a44b-5e94-b6df-4b783fba8c87-attr-10-type" class="er entityLabel">LONG</text><rect height="22" width="81.66737365722656" y="222" x="54.663330078125" class="er attributeBoxEven"/><text style="dominant-baseline: middle; font-size: 10.2px;" transform="translate(59.663330078125,233)" y="0" x="0" id="text-entity-PASSWORDENTRY-0224fa9a-a44b-5e94-b6df-4b783fba8c87-attr-10-name" class="er entityLabel">user_id</text><rect height="22" width="22.68768310546875" y="222" x="136.33070373535156" class="er attributeBoxEven"/><text style="dominant-baseline: middle; font-size: 10.2px;" transform="translate(141.33070373535156,233)" y="0" x="0" id="text-entity-PASSWORDENTRY-0224fa9a-a44b-5e94-b6df-4b783fba8c87-attr-10-key" class="er entityLabel">FK</text></g><g transform="translate(279.0183868408203,342 )" id="entity-SECURITYQUESTION-8e42331b-15c5-577f-b758-89d2d994b3c0"><rect height="112" width="142.068359375" y="0" x="0" class="er entityBox"/><text style="dominant-baseline: middle; text-anchor: middle; font-size: 12px;" transform="translate(71.0341796875,12)" y="0" x="0" id="text-entity-SECURITYQUESTION-8e42331b-15c5-577f-b758-89d2d994b3c0" class="er entityLabel">SECURITY_QUESTION</text><rect height="22" width="45.67237345377604" y="24" x="0" class="er attributeBoxOdd"/><text style="dominant-baseline: middle; font-size: 10.2px;" transform="translate(5,35)" y="0" x="0" id="text-entity-SECURITYQUESTION-8e42331b-15c5-577f-b758-89d2d994b3c0-attr-1-type" class="er entityLabel">LONG</text><rect height="22" width="71.14849344889323" y="24" x="45.67237345377604" class="er attributeBoxOdd"/><text style="dominant-baseline: middle; font-size: 10.2px;" transform="translate(50.67237345377604,35)" y="0" x="0" id="text-entity-SECURITYQUESTION-8e42331b-15c5-577f-b758-89d2d994b3c0-attr-1-name" class="er entityLabel">id</text><rect height="22" width="25.24749247233073" y="24" x="116.82086690266928" class="er attributeBoxOdd"/><text style="dominant-baseline: middle; font-size: 10.2px;" transform="translate(121.82086690266928,35)" y="0" x="0" id="text-entity-SECURITYQUESTION-8e42331b-15c5-577f-b758-89d2d994b3c0-attr-1-key" class="er entityLabel">PK</text><rect height="22" width="45.67237345377604" y="46" x="0" class="er attributeBoxEven"/><text style="dominant-baseline: middle; font-size: 10.2px;" transform="translate(5,57)" y="0" x="0" id="text-entity-SECURITYQUESTION-8e42331b-15c5-577f-b758-89d2d994b3c0-attr-2-type" class="er entityLabel">LONG</text><rect height="22" width="71.14849344889323" y="46" x="45.67237345377604" class="er attributeBoxEven"/><text style="dominant-baseline: middle; font-size: 10.2px;" transform="translate(50.67237345377604,57)" y="0" x="0" id="text-entity-SECURITYQUESTION-8e42331b-15c5-577f-b758-89d2d994b3c0-attr-2-name" class="er entityLabel">user_id</text><rect height="22" width="25.24749247233073" y="46" x="116.82086690266928" class="er attributeBoxEven"/><text style="dominant-baseline: middle; font-size: 10.2px;" transform="translate(121.82086690266928,57)" y="0" x="0" id="text-entity-SECURITYQUESTION-8e42331b-15c5-577f-b758-89d2d994b3c0-attr-2-key" class="er entityLabel">FK</text><rect height="22" width="45.67237345377604" y="68" x="0" class="er attributeBoxOdd"/><text style="dominant-baseline: middle; font-size: 10.2px;" transform="translate(5,79)" y="0" x="0" id="text-entity-SECURITYQUESTION-8e42331b-15c5-577f-b758-89d2d994b3c0-attr-3-type" class="er entityLabel">STRING</text><rect height="22" width="71.14849344889323" y="68" x="45.67237345377604" class="er attributeBoxOdd"/><text style="dominant-baseline: middle; font-size: 10.2px;" transform="translate(50.67237345377604,79)" y="0" x="0" id="text-entity-SECURITYQUESTION-8e42331b-15c5-577f-b758-89d2d994b3c0-attr-3-name" class="er entityLabel">question</text><rect height="22" width="25.24749247233073" y="68" x="116.82086690266928" class="er attributeBoxOdd"/><text style="dominant-baseline: middle; font-size: 10.2px;" transform="translate(121.82086690266928,79)" y="0" x="0" id="text-entity-SECURITYQUESTION-8e42331b-15c5-577f-b758-89d2d994b3c0-attr-3-key" class="er entityLabel"/><rect height="22" width="45.67237345377604" y="90" x="0" class="er attributeBoxEven"/><text style="dominant-baseline: middle; font-size: 10.2px;" transform="translate(5,101)" y="0" x="0" id="text-entity-SECURITYQUESTION-8e42331b-15c5-577f-b758-89d2d994b3c0-attr-4-type" class="er entityLabel">STRING</text><rect height="22" width="71.14849344889323" y="90" x="45.67237345377604" class="er attributeBoxEven"/><text style="dominant-baseline: middle; font-size: 10.2px;" transform="translate(50.67237345377604,101)" y="0" x="0" id="text-entity-SECURITYQUESTION-8e42331b-15c5-577f-b758-89d2d994b3c0-attr-4-name" class="er entityLabel">answer_hash</text><rect height="22" width="25.24749247233073" y="90" x="116.82086690266928" class="er attributeBoxEven"/><text style="dominant-baseline: middle; font-size: 10.2px;" transform="translate(121.82086690266928,101)" y="0" x="0" id="text-entity-SECURITYQUESTION-8e42331b-15c5-577f-b758-89d2d994b3c0-attr-4-key" class="er entityLabel"/></g><g transform="translate(521.0867462158203,320 )" id="entity-VERIFICATIONCODE-307d4c68-1438-5a5c-8fc8-899d2738a3f4"><rect height="156" width="139.49609375" y="0" x="0" class="er entityBox"/><text style="dominant-baseline: middle; text-anchor: middle; font-size: 12px;" transform="translate(69.748046875,12)" y="0" x="0" id="text-entity-VERIFICATIONCODE-307d4c68-1438-5a5c-8fc8-899d2738a3f4" class="er entityLabel">VERIFICATION_CODE</text><rect height="22" width="55.83541361490885" y="24" x="0" class="er attributeBoxOdd"/><text style="dominant-baseline: middle; font-size: 10.2px;" transform="translate(5,35)" y="0" x="0" id="text-entity-VERIFICATIONCODE-307d4c68-1438-5a5c-8fc8-899d2738a3f4-attr-1-type" class="er entityLabel">LONG</text><rect height="22" width="59.80091349283854" y="24" x="55.83541361490885" class="er attributeBoxOdd"/><text style="dominant-baseline: middle; font-size: 10.2px;" transform="translate(60.83541361490885,35)" y="0" x="0" id="text-entity-VERIFICATIONCODE-307d4c68-1438-5a5c-8fc8-899d2738a3f4-attr-1-name" class="er entityLabel">id</text><rect height="22" width="23.859766642252605" y="24" x="115.63632710774739" class="er attributeBoxOdd"/><text style="dominant-baseline: middle; font-size: 10.2px;" transform="translate(120.63632710774739,35)" y="0" x="0" id="text-entity-VERIFICATIONCODE-307d4c68-1438-5a5c-8fc8-899d2738a3f4-attr-1-key" class="er entityLabel">PK</text><rect height="22" width="55.83541361490885" y="46" x="0" class="er attributeBoxEven"/><text style="dominant-baseline: middle; font-size: 10.2px;" transform="translate(5,57)" y="0" x="0" id="text-entity-VERIFICATIONCODE-307d4c68-1438-5a5c-8fc8-899d2738a3f4-attr-2-type" class="er entityLabel">LONG</text><rect height="22" width="59.80091349283854" y="46" x="55.83541361490885" class="er attributeBoxEven"/><text style="dominant-baseline: middle; font-size: 10.2px;" transform="translate(60.83541361490885,57)" y="0" x="0" id="text-entity-VERIFICATIONCODE-307d4c68-1438-5a5c-8fc8-899d2738a3f4-attr-2-name" class="er entityLabel">user_id</text><rect height="22" width="23.859766642252605" y="46" x="115.63632710774739" class="er attributeBoxEven"/><text style="dominant-baseline: middle; font-size: 10.2px;" transform="translate(120.63632710774739,57)" y="0" x="0" id="text-entity-VERIFICATIONCODE-307d4c68-1438-5a5c-8fc8-899d2738a3f4-attr-2-key" class="er entityLabel">FK</text><rect height="22" width="55.83541361490885" y="68" x="0" class="er attributeBoxOdd"/><text style="dominant-baseline: middle; font-size: 10.2px;" transform="translate(5,79)" y="0" x="0" id="text-entity-VERIFICATIONCODE-307d4c68-1438-5a5c-8fc8-899d2738a3f4-attr-3-type" class="er entityLabel">STRING</text><rect height="22" width="59.80091349283854" y="68" x="55.83541361490885" class="er attributeBoxOdd"/><text style="dominant-baseline: middle; font-size: 10.2px;" transform="translate(60.83541361490885,79)" y="0" x="0" id="text-entity-VERIFICATIONCODE-307d4c68-1438-5a5c-8fc8-899d2738a3f4-attr-3-name" class="er entityLabel">code</text><rect height="22" width="23.859766642252605" y="68" x="115.63632710774739" class="er attributeBoxOdd"/><text style="dominant-baseline: middle; font-size: 10.2px;" transform="translate(120.63632710774739,79)" y="0" x="0" id="text-entity-VERIFICATIONCODE-307d4c68-1438-5a5c-8fc8-899d2738a3f4-attr-3-key" class="er entityLabel"/><rect height="22" width="55.83541361490885" y="90" x="0" class="er attributeBoxEven"/><text style="dominant-baseline: middle; font-size: 10.2px;" transform="translate(5,101)" y="0" x="0" id="text-entity-VERIFICATIONCODE-307d4c68-1438-5a5c-8fc8-899d2738a3f4-attr-4-type" class="er entityLabel">STRING</text><rect height="22" width="59.80091349283854" y="90" x="55.83541361490885" class="er attributeBoxEven"/><text style="dominant-baseline: middle; font-size: 10.2px;" transform="translate(60.83541361490885,101)" y="0" x="0" id="text-entity-VERIFICATIONCODE-307d4c68-1438-5a5c-8fc8-899d2738a3f4-attr-4-name" class="er entityLabel">type</text><rect height="22" width="23.859766642252605" y="90" x="115.63632710774739" class="er attributeBoxEven"/><text style="dominant-baseline: middle; font-size: 10.2px;" transform="translate(120.63632710774739,101)" y="0" x="0" id="text-entity-VERIFICATIONCODE-307d4c68-1438-5a5c-8fc8-899d2738a3f4-attr-4-key" class="er entityLabel"/><rect height="22" width="55.83541361490885" y="112" x="0" class="er attributeBoxOdd"/><text style="dominant-baseline: middle; font-size: 10.2px;" transform="translate(5,123)" y="0" x="0" id="text-entity-VERIFICATIONCODE-307d4c68-1438-5a5c-8fc8-899d2738a3f4-attr-5-type" class="er entityLabel">DATETIME</text><rect height="22" width="59.80091349283854" y="112" x="55.83541361490885" class="er attributeBoxOdd"/><text style="dominant-baseline: middle; font-size: 10.2px;" transform="translate(60.83541361490885,123)" y="0" x="0" id="text-entity-VERIFICATIONCODE-307d4c68-1438-5a5c-8fc8-899d2738a3f4-attr-5-name" class="er entityLabel">expires_at</text><rect height="22" width="23.859766642252605" y="112" x="115.63632710774739" class="er attributeBoxOdd"/><text style="dominant-baseline: middle; font-size: 10.2px;" transform="translate(120.63632710774739,123)" y="0" x="0" id="text-entity-VERIFICATIONCODE-307d4c68-1438-5a5c-8fc8-899d2738a3f4-attr-5-key" class="er entityLabel"/><rect height="22" width="55.83541361490885" y="134" x="0" class="er attributeBoxEven"/><text style="dominant-baseline: middle; font-size: 10.2px;" transform="translate(5,145)" y="0" x="0" id="text-entity-VERIFICATIONCODE-307d4c68-1438-5a5c-8fc8-899d2738a3f4-attr-6-type" class="er entityLabel">BOOLEAN</text><rect height="22" width="59.80091349283854" y="134" x="55.83541361490885" class="er attributeBoxEven"/><text style="dominant-baseline: middle; font-size: 10.2px;" transform="translate(60.83541361490885,145)" y="0" x="0" id="text-entity-VERIFICATIONCODE-307d4c68-1438-5a5c-8fc8-899d2738a3f4-attr-6-name" class="er entityLabel">used</text><rect height="22" width="23.859766642252605" y="134" x="115.63632710774739" class="er attributeBoxEven"/><text style="dominant-baseline: middle; font-size: 10.2px;" transform="translate(120.63632710774739,145)" y="0" x="0" id="text-entity-VERIFICATIONCODE-307d4c68-1438-5a5c-8fc8-899d2738a3f4-attr-6-key" class="er entityLabel"/></g><rect height="14" width="26.92578125" y="185.23358154296875" x="156.1457061767578" class="er relationshipLabelBox"/><text style="text-anchor: middle; dominant-baseline: middle; font-size: 12px;" y="192.23358154296875" x="169.6085968017578" id="rel1" class="er relationshipLabel">owns</text><rect height="14" width="17.861328125" y="252" x="341.1219177246094" class="er relationshipLabelBox"/><text style="text-anchor: middle; dominant-baseline: middle; font-size: 12px;" y="259" x="350.0525817871094" id="rel2" class="er relationshipLabel">has</text><rect height="14" width="44.5390625" y="199.14756774902344" x="518.1703491210938" class="er relationshipLabelBox"/><text style="text-anchor: middle; dominant-baseline: middle; font-size: 12px;" y="206.14756774902344" x="540.4398803710938" id="rel3" class="er relationshipLabel">receives</text></svg>