<svg aria-roledescription="flowchart-v2" role="graphics-document document" viewBox="-8 -8 1072.8046875 795.336181640625" style="max-width: 1072.8px; background-color: white;" xmlns:xlink="http://www.w3.org/1999/xlink" xmlns="http://www.w3.org/2000/svg" width="100%" id="mermaid-1772998873107"><style>#mermaid-1772998873107{font-family:"trebuchet ms",verdana,arial,sans-serif;font-size:16px;fill:#333;}#mermaid-1772998873107 .error-icon{fill:#552222;}#mermaid-1772998873107 .error-text{fill:#552222;stroke:#552222;}#mermaid-1772998873107 .edge-thickness-normal{stroke-width:2px;}#mermaid-1772998873107 .edge-thickness-thick{stroke-width:3.5px;}#mermaid-1772998873107 .edge-pattern-solid{stroke-dasharray:0;}#mermaid-1772998873107 .edge-pattern-dashed{stroke-dasharray:3;}#mermaid-1772998873107 .edge-pattern-dotted{stroke-dasharray:2;}#mermaid-1772998873107 .marker{fill:#333333;stroke:#333333;}#mermaid-1772998873107 .marker.cross{stroke:#333333;}#mermaid-1772998873107 svg{font-family:"trebuchet ms",verdana,arial,sans-serif;font-size:16px;}#mermaid-1772998873107 .label{font-family:"trebuchet ms",verdana,arial,sans-serif;color:#333;}#mermaid-1772998873107 .cluster-label text{fill:#333;}#mermaid-1772998873107 .cluster-label span{color:#333;}#mermaid-1772998873107 .label text,#mermaid-1772998873107 span{fill:#333;color:#333;}#mermaid-1772998873107 .node rect,#mermaid-1772998873107 .node circle,#mermaid-1772998873107 .node ellipse,#mermaid-1772998873107 .node polygon,#mermaid-1772998873107 .node path{fill:#ECECFF;stroke:#9370DB;stroke-width:1px;}#mermaid-1772998873107 .node .label{text-align:center;}#mermaid-1772998873107 .node.clickable{cursor:pointer;}#mermaid-1772998873107 .arrowheadPath{fill:#333333;}#mermaid-1772998873107 .edgePath .path{stroke:#333333;stroke-width:2.0px;}#mermaid-1772998873107 .flowchart-link{stroke:#333333;fill:none;}#mermaid-1772998873107 .edgeLabel{background-color:#e8e8e8;text-align:center;}#mermaid-1772998873107 .edgeLabel rect{opacity:0.5;background-color:#e8e8e8;fill:#e8e8e8;}#mermaid-1772998873107 .cluster rect{fill:#ffffde;stroke:#aaaa33;stroke-width:1px;}#mermaid-1772998873107 .cluster text{fill:#333;}#mermaid-1772998873107 .cluster span{color:#333;}#mermaid-1772998873107 div.mermaidTooltip{position:absolute;text-align:center;max-width:200px;padding:2px;font-family:"trebuchet ms",verdana,arial,sans-serif;font-size:12px;background:hsl(80, 100%, 96.2745098039%);border:1px solid #aaaa33;border-radius:2px;pointer-events:none;z-index:100;}#mermaid-1772998873107 .flowchartTitleText{text-anchor:middle;font-size:18px;fill:#333;}#mermaid-1772998873107 :root{--mermaid-font-family:"trebuchet ms",verdana,arial,sans-serif;}</style><g><marker orient="auto" markerHeight="12" markerWidth="12" markerUnits="userSpaceOnUse" refY="5" refX="10" viewBox="0 0 12 20" class="marker flowchart" id="flowchart-pointEnd"><path style="stroke-width: 1; stroke-dasharray: 1, 0;" class="arrowMarkerPath" d="M 0 0 L 10 5 L 0 10 z"/></marker><marker orient="auto" markerHeight="12" markerWidth="12" markerUnits="userSpaceOnUse" refY="5" refX="0" viewBox="0 0 10 10" class="marker flowchart" id="flowchart-pointStart"><path style="stroke-width: 1; stroke-dasharray: 1, 0;" class="arrowMarkerPath" d="M 0 5 L 10 10 L 10 0 z"/></marker><marker orient="auto" markerHeight="11" markerWidth="11" markerUnits="userSpaceOnUse" refY="5" refX="11" viewBox="0 0 10 10" class="marker flowchart" id="flowchart-circleEnd"><circle style="stroke-width: 1; stroke-dasharray: 1, 0;" class="arrowMarkerPath" r="5" cy="5" cx="5"/></marker><marker orient="auto" markerHeight="11" markerWidth="11" markerUnits="userSpaceOnUse" refY="5" refX="-1" viewBox="0 0 10 10" class="marker flowchart" id="flowchart-circleStart"><circle style="stroke-width: 1; stroke-dasharray: 1, 0;" class="arrowMarkerPath" r="5" cy="5" cx="5"/></marker><marker orient="auto" markerHeight="11" markerWidth="11" markerUnits="userSpaceOnUse" refY="5.2" refX="12" viewBox="0 0 11 11" class="marker cross flowchart" id="flowchart-crossEnd"><path style="stroke-width: 2; stroke-dasharray: 1, 0;" class="arrowMarkerPath" d="M 1,1 l 9,9 M 10,1 l -9,9"/></marker><marker orient="auto" markerHeight="11" markerWidth="11" markerUnits="userSpaceOnUse" refY="5.2" refX="-1" viewBox="0 0 11 11" class="marker cross flowchart" id="flowchart-crossStart"><path style="stroke-width: 2; stroke-dasharray: 1, 0;" class="arrowMarkerPath" d="M 1,1 l 9,9 M 10,1 l -9,9"/></marker><g class="root"><g class="clusters"/><g class="edgePaths"><path marker-end="url(#flowchart-pointEnd)" style="fill:none;" class="edge-thickness-normal edge-pattern-solid flowchart-link LS-A LE-B" id="L-A-B-0" d="M557.7265625,20.03740572261279L495.5052083333333,28.11450476884399C433.2838541666667,36.19160381507519,308.8411458333333,52.3458019075376,246.61979166666666,66.1729009537688C184.3984375,80,184.3984375,91.5,184.3984375,97.25L184.3984375,103"/><path marker-end="url(#flowchart-pointEnd)" style="fill:none;" class="edge-thickness-normal edge-pattern-solid flowchart-link LS-B LE-C" id="L-B-C-0" d="M146.35990594660194,137L133.49393203883494,142.75C120.62795813106796,148.5,94.89601031553399,160,82.03003640776699,171.5C69.1640625,183,69.1640625,194.5,69.1640625,200.25L69.1640625,206"/><path marker-end="url(#flowchart-pointEnd)" style="fill:none;" class="edge-thickness-normal edge-pattern-solid flowchart-link LS-C LE-D" id="L-C-D-0" d="M69.1640625,240L69.1640625,245.75C69.1640625,251.5,69.1640625,263,69.1640625,280.0918312072754C69.1640625,297.1836624145508,69.1640625,319.86732482910156,69.1640625,331.20915603637695L69.1640625,342.55098724365234"/><path marker-end="url(#flowchart-pointEnd)" style="fill:none;" class="edge-thickness-normal edge-pattern-solid flowchart-link LS-B LE-E" id="L-B-E-0" d="M222.43696905339806,137L235.30294296116506,142.75C248.16891686893203,148.5,273.90086468446606,160,286.766838592233,171.5C299.6328125,183,299.6328125,194.5,299.6328125,200.25L299.6328125,206"/><path marker-end="url(#flowchart-pointEnd)" style="fill:none;" class="edge-thickness-normal edge-pattern-solid flowchart-link LS-A LE-F" id="L-A-F-0" d="M581.125,34L581.125,39.75C581.125,45.5,581.125,57,581.125,68.5C581.125,80,581.125,91.5,581.125,97.25L581.125,103"/><path marker-end="url(#flowchart-pointEnd)" style="fill:none;" class="edge-thickness-normal edge-pattern-solid flowchart-link LS-F LE-G" id="L-F-G-0" d="M581.125,137L581.125,142.75C581.125,148.5,581.125,160,581.125,171.5C581.125,183,581.125,194.5,581.125,200.25L581.125,206"/><path marker-end="url(#flowchart-pointEnd)" style="fill:none;" class="edge-thickness-normal edge-pattern-solid flowchart-link LS-G LE-H" id="L-G-H-0" d="M581.125,240L581.125,245.75C581.125,251.5,581.125,263,581.2083333333334,274.5833333333333C581.2916666666666,286.1666666666667,581.4583333333334,297.8333333333333,581.5416666666666,303.6666666666667L581.625,309.5"/><path marker-end="url(#flowchart-pointEnd)" style="fill:none;" class="edge-thickness-normal edge-pattern-solid flowchart-link LS-H LE-I" id="L-H-I-0" d="M547.4573612787067,415.83236127870674L536.5367333572556,427.1936343989223C525.6161054358045,438.55490751913777,503.7748495929022,461.2774537595689,492.8542216714511,478.38872687978443C481.93359375,495.5,481.93359375,507,481.93359375,512.75L481.93359375,518.5"/><path marker-end="url(#flowchart-pointEnd)" style="fill:none;" class="edge-thickness-normal edge-pattern-solid flowchart-link LS-H LE-J" id="L-H-J-0" d="M615.7926387212933,415.83236127870674L626.5465999760778,427.1936343989223C637.3005612308622,438.55490751913777,658.8084837404311,461.2774537595689,669.5624449952155,478.38872687978443C680.31640625,495.5,680.31640625,507,680.31640625,512.75L680.31640625,518.5"/><path marker-end="url(#flowchart-pointEnd)" style="fill:none;" class="edge-thickness-normal edge-pattern-solid flowchart-link LS-J LE-K" id="L-J-K-0" d="M680.31640625,552.5L680.31640625,556.6666666666666C680.31640625,560.8333333333334,680.31640625,569.1666666666666,680.31640625,577.5C680.31640625,585.8333333333334,680.31640625,594.1666666666666,680.31640625,598.3333333333334L680.31640625,602.5"/><path marker-end="url(#flowchart-pointEnd)" style="fill:none;" class="edge-thickness-normal edge-pattern-solid flowchart-link LS-K LE-L" id="L-K-L-0" d="M635.4683328276699,636.5L620.2991315230582,642.25C605.1299302184466,648,574.7915276092233,659.5,559.6223263046116,671C544.453125,682.5,544.453125,694,544.453125,699.75L544.453125,705.5"/><path marker-end="url(#flowchart-pointEnd)" style="fill:none;" class="edge-thickness-normal edge-pattern-solid flowchart-link LS-K LE-M" id="L-K-M-0" d="M680.31640625,636.5L680.31640625,642.25C680.31640625,648,680.31640625,659.5,689.2114558520076,674.3196830749512C698.1065054540153,689.1393661499023,715.8966046580305,707.2787322998047,724.7916542600383,716.3484153747559L733.6867038620459,725.418098449707"/><path marker-end="url(#flowchart-pointEnd)" style="fill:none;" class="edge-thickness-normal edge-pattern-solid flowchart-link LS-M LE-A" id="L-M-A-0" d="M771.410586564513,725.418098449707L782.6416346370942,716.3484153747559C793.8726827096752,707.2787322998047,816.3347788548376,689.1393661499023,827.5658269274189,671.4863497416178C838.796875,653.8333333333334,838.796875,636.6666666666666,838.796875,621.0833333333334C838.796875,605.5,838.796875,591.5,838.796875,577.5C838.796875,563.5,838.796875,549.5,838.796875,533.9166666666666C838.796875,518.3333333333334,838.796875,501.1666666666667,838.796875,475.125C838.796875,449.0833333333333,838.796875,414.1666666666667,838.796875,379.25C838.796875,344.3333333333333,838.796875,309.4166666666667,838.796875,283.375C838.796875,257.3333333333333,838.796875,240.16666666666666,838.796875,223C838.796875,205.83333333333334,838.796875,188.66666666666666,838.796875,171.5C838.796875,154.33333333333334,838.796875,137.16666666666666,838.796875,120C838.796875,102.83333333333333,838.796875,85.66666666666667,799.7513020833334,69.27942766761667C760.7057291666666,52.89218866856669,682.6145833333334,37.284377337133385,643.5690104166666,29.480471671416733L604.5234375,21.676566005700078"/><path marker-end="url(#flowchart-pointEnd)" style="fill:none;" class="edge-thickness-normal edge-pattern-solid flowchart-link LS-K LE-N" id="L-K-N-0" d="M742.20703125,630.4600666227888L780.361328125,637.2167221856573C818.515625,643.9733777485259,894.82421875,657.486688874263,932.978515625,673.3130275120826C971.1328125,689.1393661499023,971.1328125,707.2787322998047,971.1328125,716.3484153747559L971.1328125,725.418098449707"/></g><g class="edgeLabels"><g transform="translate(184.3984375, 68.5)" class="edgeLabel"><g transform="translate(-28.875, -9.5)" class="label"><foreignObject height="19" width="57.75"><div style="display: inline-block; white-space: nowrap;" xmlns="http://www.w3.org/1999/xhtml"><span class="edgeLabel">Register</span></div></foreignObject></g></g><g class="edgeLabel"><g transform="translate(0, 0)" class="label"><foreignObject height="0" width="0"><div style="display: inline-block; white-space: nowrap;" xmlns="http://www.w3.org/1999/xhtml"><span class="edgeLabel"></span></div></foreignObject></g></g><g transform="translate(69.1640625, 274.5)" class="edgeLabel"><g transform="translate(-18.7890625, -9.5)" class="label"><foreignObject height="19" width="37.578125"><div style="display: inline-block; white-space: nowrap;" xmlns="http://www.w3.org/1999/xhtml"><span class="edgeLabel">Store</span></div></foreignObject></g></g><g transform="translate(299.6328125, 171.5)" class="edgeLabel"><g transform="translate(-73.8828125, -9.5)" class="label"><foreignObject height="19" width="147.765625"><div style="display: inline-block; white-space: nowrap;" xmlns="http://www.w3.org/1999/xhtml"><span class="edgeLabel">Set master password</span></div></foreignObject></g></g><g transform="translate(581.125, 68.5)" class="edgeLabel"><g transform="translate(-19.015625, -9.5)" class="label"><foreignObject height="19" width="38.03125"><div style="display: inline-block; white-space: nowrap;" xmlns="http://www.w3.org/1999/xhtml"><span class="edgeLabel">Login</span></div></foreignObject></g></g><g class="edgeLabel"><g transform="translate(0, 0)" class="label"><foreignObject height="0" width="0"><div style="display: inline-block; white-space: nowrap;" xmlns="http://www.w3.org/1999/xhtml"><span class="edgeLabel"></span></div></foreignObject></g></g><g class="edgeLabel"><g transform="translate(0, 0)" class="label"><foreignObject height="0" width="0"><div style="display: inline-block; white-space: nowrap;" xmlns="http://www.w3.org/1999/xhtml"><span class="edgeLabel"></span></div></foreignObject></g></g><g transform="translate(481.93359375, 484)" class="edgeLabel"><g transform="translate(-11.328125, -9.5)" class="label"><foreignObject height="19" width="22.65625"><div style="display: inline-block; white-space: nowrap;" xmlns="http://www.w3.org/1999/xhtml"><span class="edgeLabel">Yes</span></div></foreignObject></g></g><g transform="translate(680.31640625, 484)" class="edgeLabel"><g transform="translate(-9.3984375, -9.5)" class="label"><foreignObject height="19" width="18.796875"><div style="display: inline-block; white-space: nowrap;" xmlns="http://www.w3.org/1999/xhtml"><span class="edgeLabel">No</span></div></foreignObject></g></g><g class="edgeLabel"><g transform="translate(0, 0)" class="label"><foreignObject height="0" width="0"><div style="display: inline-block; white-space: nowrap;" xmlns="http://www.w3.org/1999/xhtml"><span class="edgeLabel"></span></div></foreignObject></g></g><g transform="translate(544.453125, 671)" class="edgeLabel"><g transform="translate(-19.5390625, -9.5)" class="label"><foreignObject height="19" width="39.078125"><div style="display: inline-block; white-space: nowrap;" xmlns="http://www.w3.org/1999/xhtml"><span class="edgeLabel">CRUD</span></div></foreignObject></g></g><g transform="translate(680.31640625, 671)" class="edgeLabel"><g transform="translate(-23.328125, -9.5)" class="label"><foreignObject height="19" width="46.65625"><div style="display: inline-block; white-space: nowrap;" xmlns="http://www.w3.org/1999/xhtml"><span class="edgeLabel">Export</span></div></foreignObject></g></g><g transform="translate(838.796875, 379.25)" class="edgeLabel"><g transform="translate(-34.8359375, -9.5)" class="label"><foreignObject height="19" width="69.671875"><div style="display: inline-block; white-space: nowrap;" xmlns="http://www.w3.org/1999/xhtml"><span class="edgeLabel">Download</span></div></foreignObject></g></g><g transform="translate(971.1328125, 671)" class="edgeLabel"><g transform="translate(-23.8984375, -9.5)" class="label"><foreignObject height="19" width="47.796875"><div style="display: inline-block; white-space: nowrap;" xmlns="http://www.w3.org/1999/xhtml"><span class="edgeLabel">Import</span></div></foreignObject></g></g></g><g class="nodes"><g transform="translate(581.125, 17)" id="flowchart-A-56" class="node default default"><rect height="34" width="46.796875" y="-17" x="-23.3984375" ry="0" rx="0" style="" class="basic label-container"/><g transform="translate(-15.8984375, -9.5)" style="" class="label"><foreignObject height="19" width="31.796875"><div style="display: inline-block; white-space: nowrap;" xmlns="http://www.w3.org/1999/xhtml"><span class="nodeLabel">User</span></div></foreignObject></g></g><g transform="translate(184.3984375, 120)" id="flowchart-B-57" class="node default default"><rect height="34" width="186.84375" y="-17" x="-93.421875" ry="0" rx="0" style="" class="basic label-container"/><g transform="translate(-85.921875, -9.5)" style="" class="label"><foreignObject height="19" width="171.84375"><div style="display: inline-block; white-space: nowrap;" xmlns="http://www.w3.org/1999/xhtml"><span class="nodeLabel">AuthController/Register</span></div></foreignObject></g></g><g transform="translate(69.1640625, 223)" id="flowchart-C-59" class="node default default"><rect height="34" width="98.484375" y="-17" x="-49.2421875" ry="0" rx="0" style="" class="basic label-container"/><g transform="translate(-41.7421875, -9.5)" style="" class="label"><foreignObject height="19" width="83.484375"><div style="display: inline-block; white-space: nowrap;" xmlns="http://www.w3.org/1999/xhtml"><span class="nodeLabel">UserService</span></div></foreignObject></g></g><g transform="translate(69.1640625, 379.25)" id="flowchart-D-61" class="node default default"><path transform="translate(-69.1640625,-36.69901501216401)" d="M 0,13.132676674776004 a 69.1640625,13.132676674776004 0,0,0 138.328125 0 a 69.1640625,13.132676674776004 0,0,0 -138.328125 0 l 0,47.13267667477601 a 69.1640625,13.132676674776004 0,0,0 138.328125 0 l 0,-47.13267667477601" style=""/><g transform="translate(-61.6640625, -9.5)" style="" class="label"><foreignObject height="19" width="123.328125"><div style="display: inline-block; white-space: nowrap;" xmlns="http://www.w3.org/1999/xhtml"><span class="nodeLabel">Users DB - MySQL</span></div></foreignObject></g></g><g transform="translate(299.6328125, 223)" id="flowchart-E-63" class="node default default"><rect height="34" width="262.453125" y="-17" x="-131.2265625" ry="0" rx="0" style="" class="basic label-container"/><g transform="translate(-123.7265625, -9.5)" style="" class="label"><foreignObject height="19" width="247.453125"><div style="display: inline-block; white-space: nowrap;" xmlns="http://www.w3.org/1999/xhtml"><span class="nodeLabel">EncryptionUtil: PBKDF2 + AES-GCM</span></div></foreignObject></g></g><g transform="translate(581.125, 120)" id="flowchart-F-65" class="node default default"><rect height="34" width="167.109375" y="-17" x="-83.5546875" ry="0" rx="0" style="" class="basic label-container"/><g transform="translate(-76.0546875, -9.5)" style="" class="label"><foreignObject height="19" width="152.109375"><div style="display: inline-block; white-space: nowrap;" xmlns="http://www.w3.org/1999/xhtml"><span class="nodeLabel">AuthController/Login</span></div></foreignObject></g></g><g transform="translate(581.125, 223)" id="flowchart-G-67" class="node default default"><rect height="34" width="200.53125" y="-17" x="-100.265625" ry="0" rx="0" style="" class="basic label-container"/><g transform="translate(-92.765625, -9.5)" style="" class="label"><foreignObject height="19" width="185.53125"><div style="display: inline-block; white-space: nowrap;" xmlns="http://www.w3.org/1999/xhtml"><span class="nodeLabel">CustomUserDetailsService</span></div></foreignObject></g></g><g transform="translate(581.125, 379.25)" id="flowchart-H-69" class="node default default"><polygon style="" transform="translate(-70.25,70.25)" class="label-container" points="70.25,0 140.5,-70.25 70.25,-140.5 0,-70.25"/><g transform="translate(-45.75, -9.5)" style="" class="label"><foreignObject height="19" width="91.5"><div style="display: inline-block; white-space: nowrap;" xmlns="http://www.w3.org/1999/xhtml"><span class="nodeLabel">2FA enabled?</span></div></foreignObject></g></g><g transform="translate(481.93359375, 535.5)" id="flowchart-I-71" class="node default default"><rect height="34" width="207.28125" y="-17" x="-103.640625" ry="0" rx="0" style="" class="basic label-container"/><g transform="translate(-96.140625, -9.5)" style="" class="label"><foreignObject height="19" width="192.28125"><div style="display: inline-block; white-space: nowrap;" xmlns="http://www.w3.org/1999/xhtml"><span class="nodeLabel">TOTPUtil verify - hardened</span></div></foreignObject></g></g><g transform="translate(680.31640625, 535.5)" id="flowchart-J-73" class="node default default"><rect height="34" width="89.484375" y="-17" x="-44.7421875" ry="0" rx="0" style="" class="basic label-container"/><g transform="translate(-37.2421875, -9.5)" style="" class="label"><foreignObject height="19" width="74.484375"><div style="display: inline-block; white-space: nowrap;" xmlns="http://www.w3.org/1999/xhtml"><span class="nodeLabel">Dashboard</span></div></foreignObject></g></g><g transform="translate(680.31640625, 619.5)" id="flowchart-K-75" class="node default default"><rect height="34" width="123.78125" y="-17" x="-61.890625" ry="0" rx="0" style="" class="basic label-container"/><g transform="translate(-54.390625, -9.5)" style="" class="label"><foreignObject height="19" width="108.78125"><div style="display: inline-block; white-space: nowrap;" xmlns="http://www.w3.org/1999/xhtml"><span class="nodeLabel">VaultController</span></div></foreignObject></g></g><g transform="translate(544.453125, 742.418098449707)" id="flowchart-L-77" class="node default default"><path transform="translate(-70.8046875,-36.918097638164454)" d="M 0,13.2787317587763 a 70.8046875,13.2787317587763 0,0,0 141.609375 0 a 70.8046875,13.2787317587763 0,0,0 -141.609375 0 l 0,47.2787317587763 a 70.8046875,13.2787317587763 0,0,0 141.609375 0 l 0,-47.2787317587763" style=""/><g transform="translate(-63.3046875, -9.5)" style="" class="label"><foreignObject height="19" width="126.609375"><div style="display: inline-block; white-space: nowrap;" xmlns="http://www.w3.org/1999/xhtml"><span class="nodeLabel">PasswordEntry DB</span></div></foreignObject></g></g><g transform="translate(750.359375, 742.418098449707)" id="flowchart-M-79" class="node default default"><rect height="34" width="170.203125" y="-17" x="-85.1015625" ry="0" rx="0" style="" class="basic label-container"/><g transform="translate(-77.6015625, -9.5)" style="" class="label"><foreignObject height="19" width="155.203125"><div style="display: inline-block; white-space: nowrap;" xmlns="http://www.w3.org/1999/xhtml"><span class="nodeLabel">Export Encrypted CSV</span></div></foreignObject></g></g><g transform="translate(971.1328125, 742.418098449707)" id="flowchart-N-83" class="node default default"><rect height="34" width="171.34375" y="-17" x="-85.671875" ry="0" rx="0" style="" class="basic label-container"/><g transform="translate(-78.171875, -9.5)" style="" class="label"><foreignObject height="19" width="156.34375"><div style="display: inline-block; white-space: nowrap;" xmlns="http://www.w3.org/1999/xhtml"><span class="nodeLabel">Import Encrypted CSV</span></div></foreignObject></g></g></g></g></g></svg>